<?xml version="1.0" encoding="UTF-8" standalone="no"?>
<!-- Created with Inkscape (http://www.inkscape.org/) -->

<svg
   width="256mm"
   height="256mm"
   viewBox="0 0 256 256"
   version="1.1"
   id="svg1"
   inkscape:version="1.3 (0e150ed6c4, 2023-07-21)"
   sodipodi:docname="icon.svg"
   xmlns:inkscape="http://www.inkscape.org/namespaces/inkscape"
   xmlns:sodipodi="http://sodipodi.sourceforge.net/DTD/sodipodi-0.dtd"
   xmlns="http://www.w3.org/2000/svg"
   xmlns:svg="http://www.w3.org/2000/svg">
  <sodipodi:namedview
     id="namedview1"
     pagecolor="#505050"
     bordercolor="#ffffff"
     borderopacity="1"
     inkscape:showpageshadow="0"
     inkscape:pageopacity="0"
     inkscape:pagecheckerboard="1"
     inkscape:deskcolor="#d1d1d1"
     inkscape:document-units="mm"
     inkscape:zoom="0.97134926"
     inkscape:cx="431.35875"
     inkscape:cy="524.52812"
     inkscape:window-width="1920"
     inkscape:window-height="1009"
     inkscape:window-x="1432"
     inkscape:window-y="-8"
     inkscape:window-maximized="1"
     inkscape:current-layer="layer1" />
  <defs
     id="defs1" />
  <g
     inkscape:label="Layer 1"
     inkscape:groupmode="layer"
     id="layer1">
    <rect
       style="fill:#484537;fill-opacity:1;stroke-width:0;stroke-linejoin:bevel;paint-order:markers stroke fill"
       id="rect1"
       width="223.75169"
       height="130.00009"
       x="16.124104"
       y="50.608349" />
    <path
       d="m 14.611328,36.499917 c -0.505957,0 -1.005488,0.0259 -1.497906,0.07571 -0.492421,0.04971 -0.976821,0.123349 -1.453294,0.220353 -0.952944,0.194009 -1.8723703,0.480259 -2.7470617,0.848994 -0.8746887,0.368735 -1.7049484,0.819628 -2.4820885,1.34379 C 5.6538377,39.512927 4.9295845,40.110271 4.2692893,40.770566 3.6089916,41.430867 3.0129998,42.155115 2.4888354,42.932257 1.9646736,43.709395 1.512428,44.539655 1.1436957,45.414346 0.77496087,46.289035 0.48871385,47.207112 0.29470221,48.160055 0.1976977,48.636528 0.12405485,49.122281 0.0743492,49.614702 0.02464354,50.107117 0,50.606654 0,51.112605 V 180.10555 c 0,0.50595 0.02459122,1.00548 0.0743492,1.4979 0.04970565,0.49242 0.1233485,0.97682 0.22035301,1.4533 0.19400902,0.95294 0.48025866,1.87237 0.84899349,2.74706 0.3687323,0.87468 0.8209779,1.70495 1.3451397,2.48209 0.5241644,0.77714 1.1201562,1.50139 1.7804539,2.16168 0.6602952,0.6603 1.3845484,1.25629 2.1616885,1.78046 0.7771401,0.52416 1.6073998,0.9764 2.4820885,1.34514 0.8746914,0.36873 1.7941177,0.65498 2.7470617,0.84899 0.476473,0.097 0.960873,0.17065 1.453294,0.22035 0.492418,0.0497 0.991949,0.0744 1.497906,0.0744 H 111.89138 V 180.60845 H 16.124104 V 50.608349 H 239.8758 V 180.60845 h -95.76728 v 14.10844 h 97.28006 c 0.50595,0 1.00549,-0.0246 1.49789,-0.0744 0.49243,-0.0497 0.97682,-0.12335 1.45332,-0.22035 0.95293,-0.19401 1.87236,-0.48026 2.74704,-0.849 0.87469,-0.36873 1.70496,-0.82097 2.4821,-1.34514 0.77713,-0.52416 1.50003,-1.12015 2.16033,-1.78045 0.6603,-0.6603 1.25764,-1.38455 1.78182,-2.16169 0.52416,-0.77714 0.9764,-1.6074 1.34514,-2.48209 0.36871,-0.87469 0.65363,-1.79412 0.84764,-2.74706 0.0971,-0.47647 0.17214,-0.96087 0.22184,-1.45329 C 255.9754,181.111 256,180.61146 256,180.10551 V 51.112608 c 0,-0.505951 -0.0235,-1.005488 -0.0743,-1.497904 -0.0497,-0.49242 -0.12478,-0.978173 -0.22184,-1.454646 -0.19411,-0.952944 -0.47893,-1.871021 -0.84764,-2.745709 -0.36874,-0.874692 -0.82098,-1.704951 -1.34514,-2.482089 -0.52418,-0.777143 -1.12152,-1.501391 -1.78182,-2.161691 -0.6603,-0.660295 -1.3832,-1.257639 -2.16033,-1.781804 -0.77714,-0.524162 -1.60741,-0.975055 -2.4821,-1.34379 -0.87468,-0.368735 -1.79411,-0.654979 -2.74704,-0.848993 -0.4765,-0.09701 -0.96089,-0.170648 -1.45332,-0.220353 -0.4924,-0.04971 -0.99194,-0.07571 -1.49789,-0.07571 z"
       style="fill:#1a1a1a;stroke-width:0;stroke-linejoin:bevel;paint-order:markers stroke fill"
       id="path9" />
    <path
       d="m 111.89138,180.60845 v 14.10844 21.16941 H 82.019788 c -0.348934,0 -0.689378,0.0345 -1.01798,0.1015 -0.328601,0.067 -0.646066,0.16613 -0.947683,0.29335 -0.301616,0.12714 -0.587774,0.28162 -0.855753,0.46236 -0.267979,0.18077 -0.517208,0.38742 -0.744897,0.61512 -0.227678,0.2276 -0.433017,0.47692 -0.613763,0.74488 -0.180745,0.26799 -0.336551,0.55414 -0.463701,0.85575 -0.127142,0.30164 -0.226449,0.6191 -0.293363,0.9477 -0.06689,0.32858 -0.101399,0.66904 -0.101399,1.01798 v 7.92888 c 0,0.34894 0.03448,0.6894 0.101399,1.018 0.06689,0.32858 0.166226,0.64471 0.293363,0.94632 0.127142,0.30161 0.282956,0.58912 0.463701,0.85711 0.180746,0.26796 0.386075,0.5172 0.613763,0.7449 0.227678,0.2276 0.476918,0.43302 0.744897,0.61376 0.267979,0.18078 0.554137,0.33656 0.855753,0.4637 0.301617,0.12715 0.619082,0.22656 0.947683,0.29337 0.328602,0.067 0.669046,0.10151 1.01798,0.10151 h 94.729022 c 0.34893,0 0.68939,-0.0345 1.01797,-0.10151 0.32861,-0.067 0.64473,-0.16612 0.94634,-0.29337 0.30161,-0.12714 0.58778,-0.28295 0.85575,-0.4637 0.26799,-0.18077 0.51856,-0.38608 0.74624,-0.61376 0.2276,-0.2276 0.43304,-0.47694 0.61379,-0.7449 0.18077,-0.26799 0.33653,-0.5555 0.4637,-0.85711 0.12714,-0.30161 0.22498,-0.61774 0.292,-0.94632 0.067,-0.3286 0.10282,-0.66906 0.10282,-1.018 v -7.92888 c 0,-0.34894 -0.0358,-0.6894 -0.10282,-1.01798 -0.067,-0.3286 -0.16481,-0.64606 -0.292,-0.9477 -0.12715,-0.30161 -0.28296,-0.58776 -0.4637,-0.85575 -0.18078,-0.26796 -0.38609,-0.5172 -0.61379,-0.74488 -0.2276,-0.2276 -0.47825,-0.43437 -0.74624,-0.61512 -0.26797,-0.18077 -0.55414,-0.3352 -0.85575,-0.46236 -0.30161,-0.12715 -0.61773,-0.22656 -0.94634,-0.29335 -0.32858,-0.067 -0.66904,-0.1015 -1.01797,-0.1015 h -32.64029 v -21.16941 -14.10844 z"
       style="fill:#1a1a1a;stroke-width:0;stroke-linejoin:bevel;paint-order:markers stroke fill"
       id="path10" />
    <rect
       style="fill:#00ffff;fill-opacity:0.278846;stroke-width:0;stroke-linejoin:bevel;paint-order:markers stroke fill"
       id="rect5"
       width="94.135315"
       height="6.4408374"
       x="22.47411"
       y="56.958355"
       ry="0" />
    <rect
       style="fill:#00ffff;fill-opacity:0.278846;stroke-width:0;stroke-linejoin:bevel;paint-order:markers stroke fill"
       id="rect6"
       width="49.04945"
       height="7.6794486"
       x="22.47411"
       y="68.849129" />
    <rect
       style="fill:#00ffff;fill-opacity:0.278846;stroke-width:0;stroke-linejoin:bevel;paint-order:markers stroke fill"
       id="rect7"
       width="60.197063"
       height="7.184011"
       x="22.47411"
       y="82.30365" />
    <rect
       style="fill:#00ffff;fill-opacity:0.278846;stroke-width:0;stroke-linejoin:bevel;paint-order:markers stroke fill"
       id="rect8"
       width="41.122269"
       height="6.6885624"
       x="22.72183"
       y="95.851112" />
  </g>
</svg>
